Coordinates
version=1
nRows=17
nColumns=24
inDegrees=yes

Units are S.I. units (second, meters, Newtons, ...)
Angles are in degrees.

endheader
time	pelvis_tilt	pelvis_list	pelvis_rotation	pelvis_tx	pelvis_ty	pelvis_tz	hip_flexion_r	hip_adduction_r	hip_rotation_r	knee_angle_r	ankle_angle_r	subtalar_angle_r	mtp_angle_r	hip_flexion_l	hip_adduction_l	hip_rotation_l	knee_angle_l	ankle_angle_l	subtalar_angle_l	mtp_angle_l	lumbar_extension	lumbar_bending	lumbar_rotation
      5.37000000	     37.06172486	     -0.34346500	      2.55829882	      0.52867238	      0.67893438	     -0.27056831	    -19.74116229	     -5.95637650	    -18.40582954	    -63.99357767	      8.00303242	     -3.33979672	      0.00000000	    -31.98410616	      3.07094063	      0.37968823	    -15.19652534	     16.70643085	     11.49297189	      0.00000000	    -61.54169128	      4.07987277	     -6.70231095
      5.37500000	     37.01749721	     -0.28239377	      2.88603144	      0.53348697	      0.67930627	     -0.27040194	    -18.97918715	     -5.76919809	    -18.54913998	    -63.34956547	      8.60798676	     -2.91659860	      0.00000000	    -32.63121243	      2.87070308	      0.59738837	    -14.72443139	     16.80924668	     11.69001818	      0.00000000	    -61.56960986	      4.19706190	     -6.87754904
      5.38000000	     36.99522708	     -0.15681869	      3.23495751	      0.53832956	      0.67960324	     -0.27021235	    -18.29843409	     -5.64061726	    -18.74259416	    -62.60409659	      9.20012190	     -2.41864878	      0.00000000	    -33.30099004	      2.70635825	      0.84207043	    -14.26116201	     16.96472003	     11.92366035	      0.00000000	    -61.60396822	      4.26234743	     -7.09441315
      5.38500000	     37.06937627	      0.03927877	      3.68889403	      0.54314352	      0.67988681	     -0.27010058	    -17.81468983	     -5.54441628	    -19.07421279	    -61.71256927	      9.77768110	     -1.94699696	      0.00000000	    -34.06433891	      2.53438418	      1.21181324	    -13.81376424	     17.11297288	     12.14417421	      0.00000000	    -61.73669504	      4.38003349	     -7.43303403
      5.39000000	     36.98855061	      0.15007322	      3.94389848	      0.54796391	      0.68000083	     -0.26985008	    -17.08919526	     -5.42903735	    -19.13477206	    -60.81200937	     10.27030447	     -1.40347139	      0.00000000	    -34.64793055	      2.40358758	      1.36740364	    -13.39339671	     17.27882489	     12.34189119	      0.00000000	    -61.72975023	      4.38880984	     -7.57596471
      5.39500000	     36.92374431	      0.30431450	      4.20887059	      0.55274364	      0.68004917	     -0.26957696	    -16.42361357	     -5.34544075	    -19.20253996	    -59.81190091	     10.76698745	     -0.84831097	      0.00000000	    -35.22754796	      2.29622394	      1.54529537	    -13.01084377	     17.43176759	     12.57809727	      0.00000000	    -61.75184235	      4.37281726	     -7.77750127
      5.40000000	     36.87012109	      0.49351135	      4.49121607	      0.55753148	      0.68003884	     -0.26928836	    -15.82519528	     -5.28667106	    -19.29223479	    -58.69917941	     11.22827880	     -0.28968749	      0.00000000	    -35.80469804	      2.20116251	      1.72702010	    -12.66322398	     17.60557986	     12.81670396	      0.00000000	    -61.78095712	      4.33105809	     -8.00959004
      5.40500000	     36.86726008	      0.74250973	      4.82952869	      0.56233060	      0.67998264	     -0.26905157	    -15.36044826	     -5.27843377	    -19.48288631	    -57.46649531	     11.64510850	      0.21464840	      0.00000000	    -36.43405247	      2.11844605	      1.97941481	    -12.32874889	     17.82664463	     13.06307831	      0.00000000	    -61.85548721	      4.29860421	     -8.30361543
      5.41000000	     36.78400811	      0.93955045	      5.06267365	      0.56709924	      0.67982275	     -0.26873270	    -14.78512920	     -5.23406756	    -19.49115573	    -56.17103440	     12.00657933	      0.70696435	      0.00000000	    -36.95157089	      2.05668184	      2.14425318	    -12.03826067	     17.99153197	     13.27502149	      0.00000000	    -61.87949561	      4.22870984	     -8.54532814
      5.41500000	     36.71475487	      1.19083757	      5.31732786	      0.57187370	      0.67959949	     -0.26843509	    -14.29093370	     -5.24640784	    -19.55462415	    -54.76663312	     12.34210706	      1.16837037	      0.00000000	    -37.47087979	      2.02437579	      2.31602188	    -11.78414088	     18.20160486	     13.52204052	      0.00000000	    -61.91015881	      4.13756873	     -8.82859426
      5.42000000	     36.64227525	      1.45766842	      5.58137466	      0.57667497	      0.67931443	     -0.26814283	    -13.84549559	     -5.27031648	    -19.62925553	    -53.25921015	     12.63675642	      1.57647147	      0.00000000	    -37.97907531	      1.99637050	      2.50226875	    -11.55503391	     18.42447322	     13.75886290	      0.00000000	    -61.94136762	      4.03809488	     -9.13829146
      5.42500000	     36.60725122	      1.77455616	      5.89861076	      0.58147888	      0.67899670	     -0.26790301	    -13.52601664	     -5.33002039	    -19.79372627	    -51.61742382	     12.90003828	      1.89225308	      0.00000000	    -38.50848310	      1.97227203	      2.75133190	    -11.37523215	     18.68248661	     13.99135511	      0.00000000	    -62.00230962	      3.95696368	     -9.49068660
      5.43000000	     36.49989203	      2.04600104	      6.10659534	      0.58628672	      0.67858009	     -0.26760745	    -13.11867265	     -5.37458499	    -19.79920803	    -49.91317994	     13.09690523	      2.22838080	      0.00000000	    -38.94768372	      1.98688282	      2.89598441	    -11.22261907	     18.90423418	     14.20030878	      0.00000000	    -62.00682081	      3.83344007	     -9.81012647
      5.43500000	     36.39333762	      2.35352048	      6.35134466	      0.59110844	      0.67811554	     -0.26733450	    -12.78555946	     -5.44597196	    -19.87134770	    -48.09120377	     13.27617586	      2.48403585	      0.00000000	    -39.37404448	      2.00430476	      3.05445952	    -11.10559590	     19.15812227	     14.42997893	      0.00000000	    -62.01661327	      3.71077750	    -10.17420016
      5.44000000	     36.30172471	      2.68485722	      6.62099947	      0.59595706	      0.67761590	     -0.26710521	    -12.54383838	     -5.53427102	    -19.98869308	    -46.14535103	     13.41601499	      2.68449998	      0.00000000	    -39.80258746	      2.02367438	      3.26292248	    -11.03147404	     19.43246314	     14.64674269	      0.00000000	    -62.03094064	      3.61001543	    -10.55669682
      5.44500000	     36.20035683	      3.01567512	      6.87693236	      0.60080468	      0.67706675	     -0.26688681	    -12.34161558	     -5.62710551	    -20.11229780	    -44.09382385	     13.52093368	      2.84206280	      0.00000000	    -40.20818166	      2.05341119	      3.45768854	    -10.98673234	     19.71121189	     14.83976623	      0.00000000	    -62.04914036	      3.49841530	    -10.93888676
      5.45000000	     36.09215766	      3.35262257	      7.12898410	      0.60567665	      0.67647374	     -0.26668143	    -12.19339326	     -5.72559375	    -20.25629814	    -41.93064976	     13.59851673	      2.95819769	      0.00000000	    -40.59530251	      2.09032576	      3.65092221	    -10.97617212	     19.99800108	     15.02671339	      0.00000000	    -62.05670599	      3.39225769	    -11.32418174
